<?xml version="1.0" encoding="utf-8"?>
<!-- Generator: Adobe Illustrator 27.1.0, SVG Export Plug-In . SVG Version: 6.00 Build 0)  -->
<svg version="1.1" id="Layer_1" xmlns="http://www.w3.org/2000/svg" xmlns:xlink="http://www.w3.org/1999/xlink" x="0px" y="0px"
	 viewBox="0 0 1417.3 361.4" style="enable-background:new 0 0 1417.3 361.4;" xml:space="preserve">
<g id="Layer_2_00000135655378727529065950000013414845245073123731_">
	<g id="Layer_1-2">
		<path d="M746,171.6c0,5.7-2.5,9.8-10.2,9.8h-49.5c-6.3,0-10-1.8-10-7.7s2.5-8.9,10-8.9H746V171.6z M964.2,148.2v-6.6
			c0-5.9,2.5-9.8,10.5-9.8h49.5c6.8,0,10.2,2,10.2,8.4c0,5.4-2.7,7.9-9.8,7.9H964.2z M1094,104.4v104.4h50v-76h40.9
			c13.8,0,20.9,4.3,20.9,17.7v58.4h49.9v-62.5c0-29.3-16.1-42-61.8-42L1094,104.4z M971,104.4c-40.2,0-56.3,13.4-56.3,43.6v20.7
			c0,26.1,16.1,40.2,52.4,40.2h105.8v-27.5h-95.8c-9.5,0-12.7-2.7-12.7-9.8v-4.3h75.6c26.1,0,40.9-8.2,40.9-27.7v-4.8
			c0-17.7-8.8-30.4-53.1-30.4L971,104.4z M810.5,208.9h49.9v-68.6c0-4.5,1.8-7.5,8-7.5h38.8v-28.4h-55.6
			c-29.7,0-41.1,11.1-41.1,29.7L810.5,208.9z M639.8,104.4V132h93.8c9.3,0,12.5,3.2,12.5,10v4h-75.4c-31.6,0-41.1,13-41.1,29.5v4.1
			c0,22.9,18.4,29.3,54.5,29.3h55.4c39.3,0,56.3-8.9,56.3-39.7v-24.3c0-26.1-16.1-40.4-52.7-40.4L639.8,104.4z M341,162.6
			c0,32.9,16.8,46.3,60.2,46.3h95.1v-28.1h-87.9c-10.4,0-17.5-4.8-17.5-19.8v-9.1c0-13.4,6.6-19.1,17.3-19.1h88.1v-28.4h-96.5
			c-42.7,0-58.8,17.9-58.8,46.5V162.6z M511.3,87.9v121h108.5v-28.4h-58.6V87.9L511.3,87.9z M199.6,155.5V87.9h-28.2
			c-17.5,0-27.5,7-37.9,15.2L0,208.9h60.2l88.6-71.7v71.7h41.5l85.8-72.2v72.2h50.9v-121h-27.7c-15,0-25.4,6.1-35.9,14.8
			L199.6,155.5z"/>
		<path d="M1375.8,0c-27.9,0-67.2,8.3-109.7,23.9c-38,13.8-74.5,31.8-108.6,53.5c22.2-9.1,66.1-19.4,102.3-19.4
			c48.8,0,83.6,18.7,32.2,84.2C1443.4,43.1,1439.2,0,1375.8,0"/>
		<path d="M805.8,313h9.5l17.2,48.4h-10.3l-3.6-10.4h-16.6l-3.5,10.5h-10L805.8,313z M815.7,342.1l-5.2-15.7l-5.3,15.7H815.7z"/>
		<path d="M871.8,313.3h16c10.8,0,17.6,6.2,17.6,16.5v0.2c0,11.1-7.9,16.6-18,16.9h-5.6v14.6h-10L871.8,313.3z M887.4,337.8
			c5.2,0,8-3.2,8-7.7v-0.1c0-5-2.9-7.8-8.2-7.8h-5.4v15.5H887.4z"/>
		<path d="M945.1,313.3h16c10.8,0,17.6,6.2,17.6,16.5v0.2c0,11.1-7.9,16.6-18,16.9h-5.6v14.6h-10L945.1,313.3z M960.7,337.8
			c5.2,0,8-3.2,8-7.7v-0.1c0-5-2.9-7.8-8.2-7.8H955v15.5H960.7z"/>
		<path d="M1018.4,313.3h10v39h19.5v9.1h-29.4L1018.4,313.3z"/>
		<path d="M1087.6,313.3h10v48.1h-10V313.3z"/>
		<path d="M1141,313.3h31v9h-21.1v10.4h18.6v9h-18.6v10.7h21.4v9H1141V313.3z"/>
		<path d="M1214.2,313.3h15.5c14,0,23,9.6,23,23.7v0.6c0,14.1-9,23.8-23,23.8h-15.5V313.3z M1224.2,322.3v30.1h5.5
			c7.6,0,12.7-5.3,12.7-14.9v-0.4c0-9.5-5.2-14.9-12.7-14.9L1224.2,322.3z"/>
	</g>
</g>
</svg>
